<svg width="246" height="22" viewBox="0 0 246 22" fill="none" xmlns="http://www.w3.org/2000/svg">
<path fill-rule="evenodd" clip-rule="evenodd" d="M21.82 11.2438C21.82 10.4815 21.7516 9.74856 21.6245 9.04492H11.5V13.2032H17.2855C17.0363 14.547 16.2789 15.6855 15.1403 16.4478V19.145H18.6145C20.6473 17.2736 21.82 14.5176 21.82 11.2438Z" fill="#4285F4"/>
<path fill-rule="evenodd" clip-rule="evenodd" d="M11.4997 21.7505C14.4022 21.7505 16.8356 20.7879 18.6142 19.146L15.14 16.4488C14.1774 17.0938 12.946 17.4749 11.4997 17.4749C8.69977 17.4749 6.32988 15.5839 5.48454 13.043H1.89307V15.8282C3.66193 19.3415 7.29738 21.7505 11.4997 21.7505Z" fill="#34A853"/>
<path fill-rule="evenodd" clip-rule="evenodd" d="M5.48489 13.0421C5.26989 12.3971 5.14773 11.7081 5.14773 10.9996C5.14773 10.2911 5.26989 9.6021 5.48489 8.9571V6.17188H1.89341C1.16534 7.62312 0.75 9.26494 0.75 10.9996C0.75 12.7343 1.16534 14.3761 1.89341 15.8273L5.48489 13.0421Z" fill="#FBBC05"/>
<path fill-rule="evenodd" clip-rule="evenodd" d="M11.4997 4.52557C13.078 4.52557 14.495 5.06795 15.6091 6.13318L18.6924 3.04989C16.8307 1.31523 14.3973 0.25 11.4997 0.25C7.29738 0.25 3.66193 2.65898 1.89307 6.17227L5.48454 8.9575C6.32988 6.41659 8.69977 4.52557 11.4997 4.52557Z" fill="#EA4335"/>
<path d="M57.377 10.9609V15.8477C57.1953 16.0879 56.9111 16.3516 56.5244 16.6387C56.1436 16.9199 55.6367 17.1631 55.0039 17.3682C54.3711 17.5732 53.583 17.6758 52.6396 17.6758C51.8369 17.6758 51.1016 17.541 50.4336 17.2715C49.7656 16.9961 49.1885 16.5947 48.7021 16.0674C48.2217 15.54 47.8496 14.8984 47.5859 14.1426C47.3223 13.3809 47.1904 12.5137 47.1904 11.541V10.6533C47.1904 9.68652 47.3105 8.8252 47.5508 8.06934C47.7969 7.30762 48.1484 6.66309 48.6055 6.13574C49.0625 5.6084 49.6133 5.20996 50.2578 4.94043C50.9082 4.66504 51.6436 4.52734 52.4639 4.52734C53.5127 4.52734 54.3799 4.70312 55.0654 5.05469C55.7568 5.40039 56.29 5.88086 56.665 6.49609C57.04 7.11133 57.2773 7.81445 57.377 8.60547H55.2148C55.1445 8.16016 55.0068 7.76172 54.8018 7.41016C54.6025 7.05859 54.3154 6.7832 53.9404 6.58398C53.5713 6.37891 53.0908 6.27637 52.499 6.27637C51.9893 6.27637 51.541 6.37305 51.1543 6.56641C50.7676 6.75977 50.4453 7.04395 50.1875 7.41895C49.9355 7.79395 49.7451 8.25098 49.6162 8.79004C49.4873 9.3291 49.4229 9.94434 49.4229 10.6357V11.541C49.4229 12.2441 49.4961 12.8682 49.6426 13.4131C49.7949 13.958 50.0117 14.418 50.293 14.793C50.5801 15.168 50.9287 15.4521 51.3389 15.6455C51.749 15.833 52.2119 15.9268 52.7275 15.9268C53.2314 15.9268 53.6445 15.8857 53.9668 15.8037C54.2891 15.7158 54.5439 15.6133 54.7314 15.4961C54.9248 15.373 55.0742 15.2559 55.1797 15.1445V12.6045H52.5166V10.9609H57.377ZM59.2051 12.8506V12.6484C59.2051 11.9629 59.3047 11.3271 59.5039 10.7412C59.7031 10.1494 59.9902 9.63672 60.3652 9.20312C60.7461 8.76367 61.209 8.42383 61.7539 8.18359C62.3047 7.9375 62.9258 7.81445 63.6172 7.81445C64.3145 7.81445 64.9355 7.9375 65.4805 8.18359C66.0312 8.42383 66.4971 8.76367 66.8779 9.20312C67.2588 9.63672 67.5488 10.1494 67.748 10.7412C67.9473 11.3271 68.0469 11.9629 68.0469 12.6484V12.8506C68.0469 13.5361 67.9473 14.1719 67.748 14.7578C67.5488 15.3438 67.2588 15.8564 66.8779 16.2959C66.4971 16.7295 66.0342 17.0693 65.4893 17.3154C64.9443 17.5557 64.3262 17.6758 63.6348 17.6758C62.9375 17.6758 62.3135 17.5557 61.7627 17.3154C61.2178 17.0693 60.7549 16.7295 60.374 16.2959C59.9932 15.8564 59.7031 15.3438 59.5039 14.7578C59.3047 14.1719 59.2051 13.5361 59.2051 12.8506ZM61.3232 12.6484V12.8506C61.3232 13.2783 61.3672 13.6826 61.4551 14.0635C61.543 14.4443 61.6807 14.7783 61.8682 15.0654C62.0557 15.3525 62.2959 15.5781 62.5889 15.7422C62.8818 15.9062 63.2305 15.9883 63.6348 15.9883C64.0273 15.9883 64.3672 15.9062 64.6543 15.7422C64.9473 15.5781 65.1875 15.3525 65.375 15.0654C65.5625 14.7783 65.7002 14.4443 65.7881 14.0635C65.8818 13.6826 65.9287 13.2783 65.9287 12.8506V12.6484C65.9287 12.2266 65.8818 11.8281 65.7881 11.4531C65.7002 11.0723 65.5596 10.7354 65.3662 10.4424C65.1787 10.1494 64.9385 9.9209 64.6455 9.75684C64.3584 9.58691 64.0156 9.50195 63.6172 9.50195C63.2188 9.50195 62.873 9.58691 62.5801 9.75684C62.293 9.9209 62.0557 10.1494 61.8682 10.4424C61.6807 10.7354 61.543 11.0723 61.4551 11.4531C61.3672 11.8281 61.3232 12.2266 61.3232 12.6484ZM69.418 12.8506V12.6484C69.418 11.9629 69.5176 11.3271 69.7168 10.7412C69.916 10.1494 70.2031 9.63672 70.5781 9.20312C70.959 8.76367 71.4219 8.42383 71.9668 8.18359C72.5176 7.9375 73.1387 7.81445 73.8301 7.81445C74.5273 7.81445 75.1484 7.9375 75.6934 8.18359C76.2441 8.42383 76.71 8.76367 77.0908 9.20312C77.4717 9.63672 77.7617 10.1494 77.9609 10.7412C78.1602 11.3271 78.2598 11.9629 78.2598 12.6484V12.8506C78.2598 13.5361 78.1602 14.1719 77.9609 14.7578C77.7617 15.3438 77.4717 15.8564 77.0908 16.2959C76.71 16.7295 76.2471 17.0693 75.7021 17.3154C75.1572 17.5557 74.5391 17.6758 73.8477 17.6758C73.1504 17.6758 72.5264 17.5557 71.9756 17.3154C71.4307 17.0693 70.9678 16.7295 70.5869 16.2959C70.2061 15.8564 69.916 15.3438 69.7168 14.7578C69.5176 14.1719 69.418 13.5361 69.418 12.8506ZM71.5361 12.6484V12.8506C71.5361 13.2783 71.5801 13.6826 71.668 14.0635C71.7559 14.4443 71.8936 14.7783 72.0811 15.0654C72.2686 15.3525 72.5088 15.5781 72.8018 15.7422C73.0947 15.9062 73.4434 15.9883 73.8477 15.9883C74.2402 15.9883 74.5801 15.9062 74.8672 15.7422C75.1602 15.5781 75.4004 15.3525 75.5879 15.0654C75.7754 14.7783 75.9131 14.4443 76.001 14.0635C76.0947 13.6826 76.1416 13.2783 76.1416 12.8506V12.6484C76.1416 12.2266 76.0947 11.8281 76.001 11.4531C75.9131 11.0723 75.7725 10.7354 75.5791 10.4424C75.3916 10.1494 75.1514 9.9209 74.8584 9.75684C74.5713 9.58691 74.2285 9.50195 73.8301 9.50195C73.4316 9.50195 73.0859 9.58691 72.793 9.75684C72.5059 9.9209 72.2686 10.1494 72.0811 10.4424C71.8936 10.7354 71.7559 11.0723 71.668 11.4531C71.5801 11.8281 71.5361 12.2266 71.5361 12.6484ZM86.126 7.99023H88.0508V17.2363C88.0508 18.0918 87.8691 18.8184 87.5059 19.416C87.1426 20.0137 86.6357 20.4678 85.9854 20.7783C85.335 21.0947 84.582 21.2529 83.7266 21.2529C83.3633 21.2529 82.959 21.2002 82.5137 21.0947C82.0742 20.9893 81.6465 20.8193 81.2305 20.585C80.8203 20.3564 80.4775 20.0547 80.2021 19.6797L81.1953 18.4316C81.5352 18.8359 81.9102 19.1318 82.3203 19.3193C82.7305 19.5068 83.1611 19.6006 83.6123 19.6006C84.0986 19.6006 84.5117 19.5098 84.8516 19.3281C85.1973 19.1523 85.4639 18.8916 85.6514 18.5459C85.8389 18.2002 85.9326 17.7783 85.9326 17.2803V10.1436L86.126 7.99023ZM79.666 12.8506V12.666C79.666 11.9453 79.7539 11.2891 79.9297 10.6973C80.1055 10.0996 80.3574 9.58691 80.6855 9.15918C81.0137 8.72559 81.4121 8.39453 81.8809 8.16602C82.3496 7.93164 82.8799 7.81445 83.4717 7.81445C84.0869 7.81445 84.6113 7.92578 85.0449 8.14844C85.4844 8.37109 85.8506 8.69043 86.1436 9.10645C86.4365 9.5166 86.665 10.0088 86.8291 10.583C86.999 11.1514 87.125 11.7842 87.207 12.4814V13.0703C87.1309 13.75 87.002 14.3711 86.8203 14.9336C86.6387 15.4961 86.3984 15.9824 86.0996 16.3926C85.8008 16.8027 85.4316 17.1191 84.9922 17.3418C84.5586 17.5645 84.0459 17.6758 83.4541 17.6758C82.874 17.6758 82.3496 17.5557 81.8809 17.3154C81.418 17.0752 81.0195 16.7383 80.6855 16.3047C80.3574 15.8711 80.1055 15.3613 79.9297 14.7754C79.7539 14.1836 79.666 13.542 79.666 12.8506ZM81.7842 12.666V12.8506C81.7842 13.2842 81.8252 13.6885 81.9072 14.0635C81.9951 14.4385 82.127 14.7695 82.3027 15.0566C82.4844 15.3379 82.7129 15.5605 82.9883 15.7246C83.2695 15.8828 83.6006 15.9619 83.9814 15.9619C84.4795 15.9619 84.8867 15.8564 85.2031 15.6455C85.5254 15.4346 85.7715 15.1504 85.9414 14.793C86.1172 14.4297 86.2402 14.0254 86.3105 13.5801V11.9893C86.2754 11.6436 86.2021 11.3213 86.0908 11.0225C85.9854 10.7236 85.8418 10.4629 85.6602 10.2402C85.4785 10.0117 85.25 9.83594 84.9746 9.71289C84.6992 9.58398 84.374 9.51953 83.999 9.51953C83.6182 9.51953 83.2871 9.60156 83.0059 9.76562C82.7246 9.92969 82.4932 10.1553 82.3115 10.4424C82.1357 10.7295 82.0039 11.0635 81.916 11.4443C81.8281 11.8252 81.7842 12.2324 81.7842 12.666ZM92.5156 4V17.5H90.3887V4H92.5156ZM99.0283 17.6758C98.3252 17.6758 97.6895 17.5615 97.1211 17.333C96.5586 17.0986 96.0781 16.7734 95.6797 16.3574C95.2871 15.9414 94.9854 15.4521 94.7744 14.8896C94.5635 14.3271 94.458 13.7207 94.458 13.0703V12.7188C94.458 11.9746 94.5664 11.3008 94.7832 10.6973C95 10.0938 95.3018 9.57812 95.6885 9.15039C96.0752 8.7168 96.5322 8.38574 97.0596 8.15723C97.5869 7.92871 98.1582 7.81445 98.7734 7.81445C99.4531 7.81445 100.048 7.92871 100.558 8.15723C101.067 8.38574 101.489 8.70801 101.823 9.12402C102.163 9.53418 102.415 10.0234 102.579 10.5918C102.749 11.1602 102.834 11.7871 102.834 12.4727V13.3779H95.4863V11.8574H100.742V11.6904C100.73 11.3096 100.654 10.9521 100.514 10.6182C100.379 10.2842 100.171 10.0146 99.8896 9.80957C99.6084 9.60449 99.2334 9.50195 98.7646 9.50195C98.4131 9.50195 98.0996 9.57812 97.8242 9.73047C97.5547 9.87695 97.3291 10.0908 97.1475 10.3721C96.9658 10.6533 96.8252 10.9932 96.7256 11.3916C96.6318 11.7842 96.585 12.2266 96.585 12.7188V13.0703C96.585 13.4863 96.6406 13.873 96.752 14.2305C96.8691 14.582 97.0391 14.8896 97.2617 15.1533C97.4844 15.417 97.7539 15.625 98.0703 15.7773C98.3867 15.9238 98.7471 15.9971 99.1514 15.9971C99.6611 15.9971 100.115 15.8945 100.514 15.6895C100.912 15.4844 101.258 15.1943 101.551 14.8193L102.667 15.9004C102.462 16.1992 102.195 16.4863 101.867 16.7617C101.539 17.0312 101.138 17.251 100.663 17.4209C100.194 17.5908 99.6494 17.6758 99.0283 17.6758ZM115.097 7.132H118.697V8.356H115.097V7.132ZM114.971 11.218H118.661V12.442H114.971V11.218ZM121.181 2.614H122.621V18.904H121.181V2.614ZM117.905 3.046H119.327V18.076H117.905V3.046ZM114.287 4.684H115.727C115.727 6.1 115.523 7.462 115.115 8.77C114.707 10.066 114.053 11.278 113.153 12.406C112.265 13.522 111.095 14.518 109.643 15.394L108.761 14.314C110.033 13.546 111.077 12.682 111.893 11.722C112.709 10.75 113.309 9.7 113.693 8.572C114.089 7.432 114.287 6.226 114.287 4.954V4.684ZM109.481 4.684H114.863V5.908H109.481V4.684ZM134.032 6.844H137.686V8.086H134.032V6.844ZM137.236 2.614H138.73V12.316H137.236V2.614ZM133.366 12.82C134.494 12.82 135.46 12.94 136.264 13.18C137.08 13.42 137.704 13.768 138.136 14.224C138.568 14.668 138.784 15.214 138.784 15.862C138.784 16.822 138.298 17.566 137.326 18.094C136.366 18.622 135.046 18.886 133.366 18.886C131.686 18.886 130.36 18.622 129.388 18.094C128.428 17.566 127.948 16.822 127.948 15.862C127.948 15.214 128.164 14.668 128.596 14.224C129.04 13.768 129.664 13.42 130.468 13.18C131.284 12.94 132.25 12.82 133.366 12.82ZM133.366 13.99C132.55 13.99 131.848 14.062 131.26 14.206C130.672 14.35 130.216 14.56 129.892 14.836C129.58 15.112 129.424 15.454 129.424 15.862C129.424 16.246 129.58 16.576 129.892 16.852C130.216 17.128 130.672 17.344 131.26 17.5C131.848 17.644 132.55 17.716 133.366 17.716C134.194 17.716 134.896 17.644 135.472 17.5C136.06 17.344 136.51 17.128 136.822 16.852C137.146 16.576 137.308 16.246 137.308 15.862C137.308 15.454 137.146 15.112 136.822 14.836C136.51 14.56 136.06 14.35 135.472 14.206C134.896 14.062 134.194 13.99 133.366 13.99ZM129.478 4.27H130.702V5.584C130.702 6.58 130.51 7.516 130.126 8.392C129.754 9.256 129.226 10.018 128.542 10.678C127.858 11.326 127.066 11.824 126.166 12.172L125.392 10.984C126.004 10.768 126.556 10.474 127.048 10.102C127.552 9.73 127.984 9.304 128.344 8.824C128.716 8.344 128.998 7.828 129.189 7.276C129.382 6.724 129.478 6.16 129.478 5.584V4.27ZM129.766 4.27H130.99V5.566C130.99 6.262 131.152 6.94 131.476 7.6C131.8 8.26 132.262 8.842 132.862 9.346C133.462 9.85 134.152 10.246 134.932 10.534L134.176 11.722C133.288 11.398 132.514 10.93 131.854 10.318C131.194 9.694 130.678 8.974 130.306 8.158C129.946 7.342 129.766 6.478 129.766 5.566V4.27ZM125.86 3.802H134.554V5.026H125.86V3.802ZM149.24 3.658C150.38 3.658 151.394 3.844 152.282 4.216C153.17 4.588 153.872 5.11 154.388 5.782C154.904 6.454 155.162 7.24 155.162 8.14C155.162 9.052 154.904 9.844 154.388 10.516C153.872 11.188 153.17 11.71 152.282 12.082C151.394 12.454 150.38 12.64 149.24 12.64C148.124 12.64 147.116 12.454 146.216 12.082C145.328 11.71 144.626 11.188 144.11 10.516C143.594 9.844 143.336 9.052 143.336 8.14C143.336 7.24 143.594 6.454 144.11 5.782C144.626 5.11 145.328 4.588 146.216 4.216C147.116 3.844 148.124 3.658 149.24 3.658ZM149.24 4.864C148.388 4.864 147.626 5.002 146.954 5.278C146.282 5.554 145.748 5.938 145.352 6.43C144.956 6.91 144.758 7.48 144.758 8.14C144.758 8.788 144.956 9.358 145.352 9.85C145.748 10.342 146.282 10.726 146.954 11.002C147.626 11.278 148.388 11.416 149.24 11.416C150.104 11.416 150.872 11.278 151.544 11.002C152.216 10.726 152.744 10.342 153.128 9.85C153.524 9.358 153.722 8.788 153.722 8.14C153.722 7.48 153.524 6.91 153.128 6.43C152.744 5.938 152.216 5.554 151.544 5.278C150.872 5.002 150.104 4.864 149.24 4.864ZM141.896 15.502H156.656V16.744H141.896V15.502ZM158.455 15.646H173.215V16.888H158.455V15.646ZM165.061 12.172H166.537V16.168H165.061V12.172ZM160.255 3.82H171.379V8.752H161.767V12.01H160.291V7.564H169.903V5.044H160.255V3.82ZM160.291 11.38H171.757V12.604H160.291V11.38ZM183.78 4.018H185.022V6.934C185.022 7.87 184.902 8.782 184.662 9.67C184.434 10.546 184.104 11.368 183.672 12.136C183.252 12.892 182.754 13.564 182.178 14.152C181.614 14.728 180.996 15.184 180.324 15.52L179.406 14.278C180.018 14.002 180.588 13.606 181.116 13.09C181.644 12.574 182.106 11.992 182.502 11.344C182.898 10.684 183.21 9.976 183.438 9.22C183.666 8.464 183.78 7.702 183.78 6.934V4.018ZM184.032 4.018H185.274V6.934C185.274 7.678 185.382 8.41 185.598 9.13C185.826 9.85 186.138 10.534 186.534 11.182C186.942 11.818 187.404 12.382 187.92 12.874C188.448 13.354 189.012 13.732 189.612 14.008L188.712 15.196C188.052 14.884 187.44 14.446 186.876 13.882C186.312 13.318 185.814 12.67 185.382 11.938C184.962 11.206 184.632 10.414 184.392 9.562C184.152 8.71 184.032 7.834 184.032 6.934V4.018ZM191.322 2.614H192.816V18.922H191.322V2.614ZM200.068 4.288H201.292V5.602C201.292 6.598 201.1 7.528 200.716 8.392C200.344 9.244 199.822 9.988 199.15 10.624C198.478 11.248 197.686 11.722 196.774 12.046L195.982 10.894C196.798 10.606 197.512 10.192 198.124 9.652C198.736 9.112 199.21 8.5 199.546 7.816C199.894 7.12 200.068 6.382 200.068 5.602V4.288ZM200.338 4.288H201.562V5.602C201.562 6.31 201.724 6.994 202.048 7.654C202.372 8.314 202.828 8.896 203.416 9.4C204.016 9.904 204.712 10.294 205.504 10.57L204.748 11.74C203.86 11.416 203.08 10.954 202.408 10.354C201.748 9.742 201.238 9.028 200.878 8.212C200.518 7.396 200.338 6.526 200.338 5.602V4.288ZM196.432 3.748H205.144V4.972H196.432V3.748ZM207.196 2.614H208.69V12.424H207.196V2.614ZM208.276 6.898H211.084V8.158H208.276V6.898ZM198.106 13.288H208.69V18.904H207.196V14.512H198.106V13.288ZM223.647 2.614H225.123V18.904H223.647V2.614ZM224.781 9.31H227.787V10.57H224.781V9.31ZM212.523 5.224H222.117V6.448H212.523V5.224ZM217.401 7.78C218.169 7.78 218.847 7.942 219.435 8.266C220.035 8.59 220.503 9.034 220.839 9.598C221.187 10.15 221.361 10.792 221.361 11.524C221.361 12.256 221.187 12.904 220.839 13.468C220.503 14.032 220.035 14.476 219.435 14.8C218.847 15.112 218.169 15.268 217.401 15.268C216.633 15.268 215.949 15.112 215.349 14.8C214.761 14.476 214.293 14.032 213.945 13.468C213.597 12.904 213.423 12.256 213.423 11.524C213.423 10.792 213.597 10.15 213.945 9.598C214.293 9.034 214.761 8.59 215.349 8.266C215.949 7.942 216.633 7.78 217.401 7.78ZM217.401 9.022C216.909 9.022 216.471 9.13 216.087 9.346C215.703 9.562 215.397 9.856 215.169 10.228C214.953 10.6 214.845 11.032 214.845 11.524C214.845 12.016 214.953 12.454 215.169 12.838C215.397 13.21 215.703 13.504 216.087 13.72C216.471 13.924 216.909 14.026 217.401 14.026C217.881 14.026 218.313 13.924 218.697 13.72C219.081 13.504 219.381 13.21 219.597 12.838C219.825 12.454 219.939 12.016 219.939 11.524C219.939 11.032 219.825 10.6 219.597 10.228C219.381 9.856 219.081 9.562 218.697 9.346C218.313 9.13 217.881 9.022 217.401 9.022ZM216.627 2.812H218.121V5.764H216.627V2.812ZM241.033 2.614H242.527V18.904H241.033V2.614ZM236.263 4.378H237.739C237.739 5.554 237.595 6.688 237.307 7.78C237.031 8.872 236.593 9.91 235.993 10.894C235.393 11.866 234.613 12.772 233.653 13.612C232.693 14.452 231.529 15.202 230.161 15.862L229.369 14.656C230.941 13.9 232.237 13.018 233.257 12.01C234.277 11.002 235.033 9.88 235.525 8.644C236.017 7.396 236.263 6.052 236.263 4.612V4.378ZM230.125 4.378H236.893V5.584H230.125V4.378Z" fill="black" fill-opacity="0.54"/>
</svg>
