<svg width="64" height="64" viewBox="0 0 64 64" fill="none" xmlns="http://www.w3.org/2000/svg">
<rect width="64" height="64" rx="16" fill="#D9D9D9"/>
<rect width="64" height="64" rx="16" fill="#EFEFF4"/>
<path d="M31.9711 30.1922C36.7186 30.1922 40.5672 26.3436 40.5672 21.5961C40.5672 16.8486 36.7186 13 31.9711 13C27.2236 13 23.375 16.8486 23.375 21.5961C23.375 26.3436 27.2236 30.1922 31.9711 30.1922Z" fill="#D7D7DC"/>
<path d="M44.582 17.9863H19.3613C13.0866 17.9863 8 23.073 8 29.3476V40.4652C8 46.7398 13.0866 51.8265 19.3613 51.8265H44.582C50.8566 51.8265 55.9433 46.7398 55.9433 40.4652V29.3476C55.9433 23.073 50.8566 17.9863 44.582 17.9863Z" fill="#D7D7DC"/>
<path d="M26.4434 25.6641C30.8919 25.6643 34.5107 29.1665 34.5107 33.502C34.5106 37.8373 30.8918 41.3387 26.4434 41.3389C21.9947 41.3389 18.3752 37.8374 18.375 33.502C18.375 29.1664 21.9946 25.6641 26.4434 25.6641Z" fill="white" stroke="#BDBDC2" stroke-width="0.5"/>
<path d="M24.1516 37.9961C26.7097 37.9961 28.7836 35.9835 28.7836 33.501C28.7836 31.0184 26.7097 29.0059 24.1516 29.0059C21.5934 29.0059 19.5195 31.0184 19.5195 33.501C19.5195 35.9835 21.5934 37.9961 24.1516 37.9961Z" fill="#BDBDC2"/>
<path d="M37.4941 25.6641C41.9427 25.6643 45.5615 29.1665 45.5615 33.502C45.5613 37.8373 41.9426 41.3387 37.4941 41.3389C33.0455 41.3389 29.426 37.8374 29.4258 33.502C29.4258 29.1664 33.0454 25.6641 37.4941 25.6641Z" fill="white" stroke="#BDBDC2" stroke-width="0.5"/>
<path d="M35.2023 37.9961C37.7605 37.9961 39.8344 35.9835 39.8344 33.501C39.8344 31.0184 37.7605 29.0059 35.2023 29.0059C32.6441 29.0059 30.5703 31.0184 30.5703 33.501C30.5703 35.9835 32.6441 37.9961 35.2023 37.9961Z" fill="#BDBDC2"/>
</svg>
