<svg width="300" height="78" viewBox="0 0 300 78" fill="none" xmlns="http://www.w3.org/2000/svg">
<g clip-path="url(#clip0_1_14358)">
<path d="M156.705 28.1156H150.442V38.2325H157.24V47.8676H142.038V52.5781H158.632V61.9455H113.668V52.5781H130.529V47.8676H115.595V38.2325H122.928V28.1156H116.13V18.4805H156.705V28.1156ZM134.972 26.5633C134.404 25.9544 133.634 25.6533 132.671 25.6533C131.707 25.6533 130.851 26.028 130.101 26.7774C129.385 27.5602 129.031 28.4167 129.031 29.3467C129.031 30.2768 129.385 31.0931 130.101 31.809C130.389 32.0968 130.683 32.3176 130.984 32.4782C131.286 32.6387 131.794 32.8261 132.51 33.0402C131.834 33.2543 131.339 33.4484 131.038 33.629C130.737 33.8097 130.422 34.0372 130.101 34.3249C129.385 34.9672 129.031 35.7701 129.031 36.7337C129.031 37.6972 129.385 38.5336 130.101 39.3566C130.884 40.0725 131.761 40.4271 132.724 40.4271C133.688 40.4271 134.47 40.0725 135.186 39.3566C135.434 39.1424 135.641 38.8949 135.802 38.6072C135.963 38.3194 136.17 37.8042 136.418 37.0548C136.665 37.7708 136.873 38.2793 137.033 38.5804C137.194 38.8815 137.415 39.1424 137.702 39.3566C138.418 40.0725 139.234 40.4271 140.165 40.4271C141.095 40.4271 141.951 40.0725 142.734 39.3566C143.45 38.6072 143.804 37.7306 143.804 36.7337C143.804 35.7367 143.45 34.9338 142.734 34.3249C142.52 34.0773 142.245 33.8498 141.904 33.6558C141.563 33.4617 141.041 33.2543 140.325 33.0402C141.075 32.8261 141.61 32.6387 141.931 32.4782C142.252 32.3176 142.52 32.0968 142.734 31.809C143.483 31.0931 143.858 30.2768 143.858 29.3467C143.858 28.4167 143.483 27.5268 142.734 26.7774C142.058 26.028 141.202 25.6533 140.165 25.6533C138.418 25.6533 137.167 26.7974 136.418 29.0791C136.023 28.0085 135.541 27.1721 134.972 26.5633Z" fill="#250996"/>
<path d="M202.578 27.6882C202.578 30.184 201.648 32.5392 199.795 34.7539H205.79V42.355H160.826V34.7539H192.515L188.875 33.041C189.765 32.2582 190.528 31.4084 191.15 30.4984C191.772 29.5884 192.087 28.6852 192.087 27.7952C192.087 26.9053 191.712 26.1559 190.963 25.44C189.464 24.0483 187.055 23.3524 183.736 23.3524C179.026 23.3524 173.191 24.7107 166.233 27.4205L163.342 19.3378C166.982 17.9795 170.729 16.9223 174.583 16.1528C178.437 15.3833 182.043 15.002 185.396 15.002C192.067 15.002 196.67 16.5007 199.206 19.4983C201.454 22.1748 202.578 24.9047 202.578 27.6882ZM182.719 63.0169C186.005 63.0169 189.758 62.7694 193.987 62.2675C198.216 61.7657 201.24 61.1769 203.06 60.5011L204.505 67.6739C201.474 68.4969 198.048 69.1192 194.228 69.5474C190.407 69.9756 186.607 70.1898 182.826 70.1898C179.541 70.1898 176.617 70.0292 174.048 69.708C170.655 69.3132 168.16 68.1356 166.554 66.1751C164.948 64.2146 164.145 61.7323 164.145 58.7347C164.145 56.9883 164.379 55.2553 164.841 53.5424H191.391C191.531 53.2948 191.632 52.9201 191.685 52.4183C191.739 51.9165 191.766 51.5819 191.766 51.4013H164.413V44.7102H201.936C201.936 46.102 201.876 47.9019 201.749 50.1166C201.622 52.3313 201.488 53.9706 201.347 55.0412L200.544 59.8052H174.797C174.797 60.6951 175.091 61.3776 175.68 61.8393C176.269 62.301 177.527 62.6423 179.454 62.8564C180.311 62.9634 181.401 63.0169 182.719 63.0169Z" fill="#250996"/>
<path d="M235.178 17.7324C239.781 17.7324 243.294 18.5889 245.723 20.3018C248.152 22.0147 249.363 24.7781 249.363 28.5987C249.363 31.6297 248.58 35.1292 247.007 39.0903H249.791V46.8519H235.873V53.1147H252.895V61.9469H207.932V53.1147H224.9V46.8519H211.786V21.6935H211.839C221.936 19.0506 229.718 17.7324 235.178 17.7324ZM232.929 26.5646C230.327 26.5646 226.58 27.12 221.688 28.224V39.0903H236.195C238.015 35.5908 238.925 32.8609 238.925 30.9004C238.925 29.1139 238.262 27.9028 236.944 27.2605C236.014 26.7988 234.676 26.5646 232.929 26.5646Z" fill="#250996"/>
<path d="M296.789 27.6882C296.789 30.184 295.859 32.5392 294.006 34.7539H300.001V42.355H255.037V34.7539H286.726L283.086 33.041C283.976 32.2582 284.739 31.4084 285.361 30.4984C285.983 29.5884 286.298 28.6852 286.298 27.7952C286.298 26.9053 285.923 26.1559 285.174 25.44C283.675 24.0483 281.266 23.3524 277.947 23.3524C273.237 23.3524 267.402 24.7107 260.443 27.4205L257.553 19.3378C261.193 17.9795 264.94 16.9223 268.794 16.1528C272.648 15.3833 276.254 15.002 279.607 15.002C286.278 15.002 290.881 16.5007 293.417 19.4983C295.665 22.1748 296.789 24.9047 296.789 27.6882ZM276.93 63.0169C280.216 63.0169 283.969 62.7694 288.198 62.2675C292.427 61.7657 295.451 61.1769 297.271 60.5011L298.716 67.6739C295.685 68.4969 292.259 69.1192 288.439 69.5474C284.618 69.9756 280.818 70.1898 277.037 70.1898C273.752 70.1898 270.828 70.0292 268.259 69.708C264.866 69.3132 262.371 68.1356 260.765 66.1751C259.159 64.2146 258.356 61.7323 258.356 58.7347C258.356 56.9883 258.59 55.2553 259.052 53.5424H285.602C285.742 53.2948 285.843 52.9201 285.896 52.4183C285.95 51.9165 285.977 51.5819 285.977 51.4013H258.624V44.7102H296.147C296.147 46.102 296.087 47.9019 295.96 50.1166C295.832 52.3313 295.699 53.9706 295.558 55.0412L294.755 59.8052H269.008C269.008 60.6951 269.302 61.3776 269.891 61.8393C270.48 62.301 271.738 62.6423 273.665 62.8564C274.521 62.9634 275.612 63.0169 276.93 63.0169Z" fill="#250996"/>
<path d="M48.0275 34.4455C57.5393 34.4455 65.2502 26.7346 65.2502 17.2228C65.2502 7.7109 57.5393 0 48.0275 0C38.5156 0 30.8047 7.7109 30.8047 17.2228C30.8047 26.7346 38.5156 34.4455 48.0275 34.4455Z" fill="#250996"/>
<path d="M73.2938 9.99023H22.763C10.1913 9.99023 0 20.1816 0 32.7532V55.0277C0 67.5993 10.1913 77.7907 22.763 77.7907H73.2938C85.8654 77.7907 96.0567 67.5993 96.0567 55.0277V32.7532C96.0567 20.1816 85.8654 9.99023 73.2938 9.99023Z" fill="#250996"/>
<path d="M36.9551 25.375C45.8677 25.3752 53.1182 32.3912 53.1182 41.0771C53.1181 49.763 45.8677 56.7791 36.9551 56.7793C28.0423 56.7793 20.7911 49.7631 20.791 41.0771C20.791 32.3911 28.0423 25.375 36.9551 25.375Z" fill="white" stroke="#250996"/>
<path d="M32.3645 50.0826C37.4899 50.0826 41.645 46.0504 41.645 41.0765C41.645 36.1025 37.4899 32.0703 32.3645 32.0703C27.239 32.0703 23.084 36.1025 23.084 41.0765C23.084 46.0504 27.239 50.0826 32.3645 50.0826Z" fill="#250996"/>
<path d="M59.0957 25.375C68.0083 25.3752 75.2588 32.3912 75.2588 41.0771C75.2587 49.763 68.0083 56.7791 59.0957 56.7793C50.1829 56.7793 42.9317 49.7631 42.9316 41.0771C42.9316 32.3911 50.1829 25.375 59.0957 25.375Z" fill="white" stroke="#250996"/>
<path d="M54.5051 50.0826C59.6306 50.0826 63.7856 46.0504 63.7856 41.0765C63.7856 36.1025 59.6306 32.0703 54.5051 32.0703C49.3796 32.0703 45.2246 36.1025 45.2246 41.0765C45.2246 46.0504 49.3796 50.0826 54.5051 50.0826Z" fill="#250996"/>
</g>
<defs>
<clipPath id="clip0_1_14358">
<rect width="300" height="77.7902" fill="white"/>
</clipPath>
</defs>
</svg>
