<svg width="64" height="64" viewBox="0 0 64 64" fill="none" xmlns="http://www.w3.org/2000/svg">
<rect width="64" height="64" rx="16" fill="#250996"/>
<path d="M31.9711 30.1922C36.7186 30.1922 40.5672 26.3436 40.5672 21.5961C40.5672 16.8486 36.7186 13 31.9711 13C27.2236 13 23.375 16.8486 23.375 21.5961C23.375 26.3436 27.2236 30.1922 31.9711 30.1922Z" fill="white"/>
<path d="M44.582 17.9863H19.3613C13.0866 17.9863 8 23.073 8 29.3476V40.4652C8 46.7398 13.0866 51.8265 19.3613 51.8265H44.582C50.8566 51.8265 55.9433 46.7398 55.9433 40.4652V29.3476C55.9433 23.073 50.8566 17.9863 44.582 17.9863Z" fill="white"/>
<path d="M26.4434 25.6641C30.8919 25.6643 34.5107 29.1665 34.5107 33.502C34.5106 37.8373 30.8918 41.3387 26.4434 41.3389C21.9947 41.3389 18.3752 37.8374 18.375 33.502C18.375 29.1664 21.9946 25.6641 26.4434 25.6641Z" fill="white" stroke="#250996" stroke-width="0.5"/>
<path d="M24.1514 29.5059C26.4477 29.5059 28.2832 31.3086 28.2832 33.501C28.2832 35.6934 26.4477 37.4961 24.1514 37.4961C21.8552 37.496 20.0195 35.6933 20.0195 33.501C20.0195 31.3086 21.8552 29.506 24.1514 29.5059Z" fill="#250996" stroke="#250996"/>
<path d="M37.4941 25.6641C41.9427 25.6643 45.5615 29.1665 45.5615 33.502C45.5613 37.8373 41.9426 41.3387 37.4941 41.3389C33.0455 41.3389 29.426 37.8374 29.4258 33.502C29.4258 29.1664 33.0454 25.6641 37.4941 25.6641Z" fill="white" stroke="#250996" stroke-width="0.5"/>
<path d="M35.2021 29.5059C37.4984 29.5059 39.334 31.3086 39.334 33.501C39.334 35.6934 37.4984 37.4961 35.2021 37.4961C32.9059 37.496 31.0703 35.6933 31.0703 33.501C31.0703 31.3086 32.9059 29.506 35.2021 29.5059Z" fill="#250996" stroke="#250996"/>
</svg>
