<svg width="22" height="22" viewBox="0 0 22 22" fill="none" xmlns="http://www.w3.org/2000/svg">
<path fill-rule="evenodd" clip-rule="evenodd" d="M10.9004 0.765625C5.10139 0.765625 0.400391 5.01862 0.400391 10.2656C0.400391 12.7926 1.49839 15.0826 3.27639 16.7856L2.40839 21.0346C2.38991 21.1255 2.39706 21.2197 2.42906 21.3068C2.46106 21.3938 2.51663 21.4703 2.58957 21.5275C2.66251 21.5848 2.74995 21.6207 2.8421 21.6311C2.93425 21.6415 3.02749 21.6261 3.11139 21.5866L7.84239 19.3536C8.83866 19.6273 9.8672 19.7659 10.9004 19.7656C16.6994 19.7656 21.4004 15.5126 21.4004 10.2656C21.4004 5.01862 16.6994 0.765625 10.9004 0.765625Z" fill="black"/>
</svg>
