<svg width="24" height="24" viewBox="0 0 24 24" fill="none" xmlns="http://www.w3.org/2000/svg">
<path fill-rule="evenodd" clip-rule="evenodd" d="M7.53298 9.21078L10.887 5.85578V15.0368C10.887 15.3287 11.0029 15.6086 11.2093 15.815C11.4157 16.0213 11.6956 16.1373 11.9875 16.1373C12.2794 16.1373 12.5593 16.0213 12.7657 15.815C12.972 15.6086 13.088 15.3287 13.088 15.0368V5.85678L16.443 9.21078C16.5448 9.31343 16.6659 9.39491 16.7993 9.45051C16.9328 9.50611 17.0759 9.53473 17.2205 9.53473C17.365 9.53473 17.5082 9.50611 17.6416 9.45051C17.7751 9.39491 17.8962 9.31343 17.998 9.21078C18.1002 9.10863 18.1813 8.98735 18.2366 8.85385C18.2919 8.72036 18.3203 8.57728 18.3203 8.43278C18.3203 8.28829 18.2919 8.1452 18.2366 8.01171C18.1813 7.87822 18.1002 7.75693 17.998 7.65478L12.765 2.42178C12.5582 2.21666 12.2787 2.10156 11.9875 2.10156C11.6962 2.10156 11.4168 2.21666 11.21 2.42178L5.97698 7.65478C5.78298 7.86357 5.67751 8.13946 5.68274 8.42442C5.68797 8.70938 5.8035 8.9812 6.00503 9.18273C6.20656 9.38426 6.47839 9.49979 6.76335 9.50502C7.04831 9.51026 7.32419 9.40478 7.53298 9.21078Z" fill="#8B95A1"/>
<path fill-rule="evenodd" clip-rule="evenodd" d="M20.381 13.0928C19.774 13.0928 19.28 13.5858 19.28 14.1928V18.3998C19.28 19.1168 18.697 19.6998 17.981 19.6998H5.99597C5.27897 19.6998 4.69597 19.1168 4.69597 18.3998V14.1918C4.69597 13.9001 4.58008 13.6203 4.37379 13.414C4.1675 13.2077 3.88771 13.0918 3.59597 13.0918C3.30423 13.0918 3.02444 13.2077 2.81815 13.414C2.61186 13.6203 2.49597 13.9001 2.49597 14.1918V18.3998C2.49597 20.3298 4.06597 21.8998 5.99597 21.8998H17.981C19.91 21.8998 21.481 20.3298 21.481 18.3998V14.1918C21.481 13.9001 21.3651 13.6203 21.1588 13.414C20.9525 13.2077 20.6727 13.0918 20.381 13.0918" fill="#8B95A1"/>
</svg>
