<svg width="17" height="17" viewBox="0 0 17 17" fill="none" xmlns="http://www.w3.org/2000/svg">
<path fill-rule="evenodd" clip-rule="evenodd" d="M12.02 7.57663L8.29736 11.2993C8.17235 11.4243 8.00281 11.4945 7.82603 11.4945C7.64926 11.4945 7.47972 11.4243 7.3547 11.2993L5.07736 9.02129C5.01547 8.9594 4.96637 8.88591 4.93287 8.80504C4.89937 8.72417 4.88213 8.63749 4.88213 8.54996C4.88213 8.46242 4.89937 8.37575 4.93287 8.29488C4.96637 8.214 5.01547 8.14052 5.07736 8.07863C5.13926 8.01673 5.21274 7.96763 5.29361 7.93413C5.37449 7.90063 5.46116 7.88339 5.5487 7.88339C5.63623 7.88339 5.72291 7.90063 5.80378 7.93413C5.88465 7.96763 5.95813 8.01673 6.02003 8.07863L7.82603 9.88463L11.0774 6.63396C11.1393 6.57206 11.2127 6.52296 11.2936 6.48947C11.3745 6.45597 11.4612 6.43873 11.5487 6.43873C11.6362 6.43873 11.7229 6.45597 11.8038 6.48947C11.8847 6.52296 11.9581 6.57206 12.02 6.63396C12.0819 6.69586 12.131 6.76934 12.1645 6.85021C12.198 6.93108 12.2153 7.01776 12.2153 7.10529C12.2153 7.19283 12.198 7.2795 12.1645 7.36038C12.131 7.44125 12.0819 7.51473 12.02 7.57663ZM13.682 2.49996H12.5954V1.83329C12.5954 1.65648 12.5251 1.48691 12.4001 1.36189C12.2751 1.23686 12.1055 1.16663 11.9287 1.16663C11.7519 1.16663 11.5823 1.23686 11.4573 1.36189C11.3323 1.48691 11.262 1.65648 11.262 1.83329V2.49996H5.83536V1.83329C5.83536 1.65648 5.76513 1.48691 5.6401 1.36189C5.51508 1.23686 5.34551 1.16663 5.1687 1.16663C4.99189 1.16663 4.82232 1.23686 4.69729 1.36189C4.57227 1.48691 4.50203 1.65648 4.50203 1.83329V2.49996H3.41536C3.06174 2.49996 2.7226 2.64044 2.47256 2.89048C2.22251 3.14053 2.08203 3.47967 2.08203 3.83329V14.1C2.08203 14.4536 2.22251 14.7927 2.47256 15.0428C2.7226 15.2928 3.06174 15.4333 3.41536 15.4333H13.682C14.0357 15.4333 14.3748 15.2928 14.6248 15.0428C14.8749 14.7927 15.0154 14.4536 15.0154 14.1V3.83329C15.0154 3.47967 14.8749 3.14053 14.6248 2.89048C14.3748 2.64044 14.0357 2.49996 13.682 2.49996Z" fill="#A3A3A8"/>
</svg>
