<svg width="46" height="46" viewBox="0 0 46 46" fill="none" xmlns="http://www.w3.org/2000/svg">
<g clip-path="url(#clip0_1_19322)">
<path d="M40.2883 9.58337H36.4167V5.71171C36.4167 4.67671 35.5733 3.83337 34.5383 3.83337H34.4808C33.4267 3.83337 32.5833 4.67671 32.5833 5.71171V9.58337H28.7308C27.6958 9.58337 26.8525 10.4267 26.8333 11.4617V11.5192C26.8333 12.5734 27.6767 13.4167 28.7308 13.4167H32.5833V17.2692C32.5833 18.3042 33.4267 19.1667 34.4808 19.1475H34.5383C35.5733 19.1475 36.4167 18.3042 36.4167 17.2692V13.4167H40.2883C41.3233 13.4167 42.1667 12.5734 42.1667 11.5384V11.4617C42.1667 10.4267 41.3233 9.58337 40.2883 9.58337ZM30.6667 17.2692V15.3334H28.7308C27.715 15.3334 26.7567 14.9309 26.0283 14.2217C25.3192 13.4934 24.9167 12.535 24.9167 11.4617C24.9167 10.7717 25.1083 10.1392 25.4342 9.58337H9.58333C7.475 9.58337 5.75 11.3084 5.75 13.4167V36.4167C5.75 38.525 7.475 40.25 9.58333 40.25H32.5833C34.6917 40.25 36.4167 38.525 36.4167 36.4167V20.5467C35.8417 20.8725 35.19 21.0834 34.4617 21.0834C32.3725 21.0642 30.6667 19.3584 30.6667 17.2692ZM30.59 36.4167H11.5C10.7142 36.4167 10.2542 35.5159 10.7333 34.8834L14.5283 29.8425C14.9308 29.3059 15.7167 29.3442 16.1 29.8809L19.1667 34.5L24.1692 27.83C24.5525 27.3317 25.3 27.3125 25.6833 27.8109L31.3375 34.8642C31.8358 35.4967 31.395 36.4167 30.59 36.4167Z" fill="#8F8F94"/>
</g>
<defs>
<clipPath id="clip0_1_19322">
<rect width="46" height="46" fill="white"/>
</clipPath>
</defs>
</svg>
