<svg width="24" height="24" viewBox="0 0 24 24" fill="none" xmlns="http://www.w3.org/2000/svg">
<path fill-rule="evenodd" clip-rule="evenodd" d="M17.2078 10.4148L11.6238 15.9988C11.4363 16.1863 11.1819 16.2916 10.9168 16.2916C10.6516 16.2916 10.3973 16.1863 10.2098 15.9988L6.79378 12.5818C6.70094 12.489 6.62729 12.3787 6.57704 12.2574C6.52679 12.1361 6.50093 12.0061 6.50093 11.8748C6.50093 11.7435 6.52679 11.6135 6.57704 11.4922C6.62729 11.3709 6.70094 11.2606 6.79378 11.1678C6.88663 11.075 6.99685 11.0013 7.11816 10.9511C7.23946 10.9008 7.36948 10.875 7.50078 10.875C7.63208 10.875 7.7621 10.9008 7.88341 10.9511C8.00471 11.0013 8.11494 11.075 8.20778 11.1678L10.9168 13.8768L15.7938 9.0008C15.8866 8.90796 15.9968 8.83431 16.1182 8.78406C16.2395 8.73382 16.3695 8.70796 16.5008 8.70796C16.6321 8.70796 16.7621 8.73382 16.8834 8.78406C17.0047 8.83431 17.1149 8.90796 17.2078 9.0008C17.3006 9.09365 17.3743 9.20387 17.4245 9.32518C17.4748 9.44649 17.5006 9.5765 17.5006 9.7078C17.5006 9.83911 17.4748 9.96912 17.4245 10.0904C17.3743 10.2117 17.3006 10.322 17.2078 10.4148ZM19.7008 2.7998H18.0708V1.7998C18.0708 1.53459 17.9654 1.28023 17.7779 1.0927C17.5904 0.905162 17.336 0.799805 17.0708 0.799805C16.8056 0.799805 16.5512 0.905162 16.3637 1.0927C16.1761 1.28023 16.0708 1.53459 16.0708 1.7998V2.7998H7.93078V1.7998C7.93078 1.53459 7.82542 1.28023 7.63789 1.0927C7.45035 0.905162 7.196 0.799805 6.93078 0.799805C6.66557 0.799805 6.41121 0.905162 6.22367 1.0927C6.03614 1.28023 5.93078 1.53459 5.93078 1.7998V2.7998H4.30078C3.77035 2.7998 3.26164 3.01052 2.88657 3.38559C2.5115 3.76066 2.30078 4.26937 2.30078 4.7998V20.1998C2.30078 20.7302 2.5115 21.2389 2.88657 21.614C3.26164 21.9891 3.77035 22.1998 4.30078 22.1998H19.7008C20.2312 22.1998 20.7399 21.9891 21.115 21.614C21.4901 21.2389 21.7008 20.7302 21.7008 20.1998V4.7998C21.7008 4.26937 21.4901 3.76066 21.115 3.38559C20.7399 3.01052 20.2312 2.7998 19.7008 2.7998Z" fill="#4E4E53"/>
</svg>
