<svg width="24" height="24" viewBox="0 0 24 24" fill="none" xmlns="http://www.w3.org/2000/svg">
<mask id="path-1-inside-1_1_15454" fill="white">
<path fill-rule="evenodd" clip-rule="evenodd" d="M10.9042 21.5267C11.5702 21.9667 12.4292 21.9667 13.0942 21.5267C15.2092 20.1307 19.8142 16.7937 21.7982 13.0597C24.4132 8.1337 21.3422 3.2207 17.2822 3.2207C14.9682 3.2207 13.5762 4.4297 12.8062 5.4687C12.7138 5.59596 12.5925 5.69952 12.4523 5.77093C12.3121 5.84233 12.1571 5.87956 11.9997 5.87956C11.8424 5.87956 11.6874 5.84233 11.5472 5.77093C11.407 5.69952 11.2857 5.59596 11.1932 5.4687C10.4232 4.4297 9.03124 3.2207 6.71724 3.2207C2.65724 3.2207 -0.413756 8.1337 2.20224 13.0597C4.18424 16.7937 8.79124 20.1307 10.9042 21.5267Z"/>
</mask>
<path d="M13.0942 21.5267L11.7722 19.5237L11.7699 19.5252L13.0942 21.5267ZM21.7982 13.0597L23.9176 14.1858L23.9181 14.185L21.7982 13.0597ZM12.8062 5.4687L10.878 4.03971L10.8714 4.04869L10.8648 4.05772L12.8062 5.4687ZM11.1932 5.4687L13.1347 4.05772L13.1281 4.04869L13.1215 4.03971L11.1932 5.4687ZM2.20224 13.0597L4.32212 11.9345L4.32189 11.934L2.20224 13.0597ZM9.5813 23.5292C11.049 24.4988 12.95 24.4999 14.4186 23.5282L11.7699 19.5252C11.9085 19.4335 12.0915 19.4346 12.2272 19.5242L9.5813 23.5292ZM14.4163 23.5297C15.5302 22.7945 17.3105 21.5419 19.0879 19.9655C20.8384 18.4129 22.7297 16.4216 23.9176 14.1858L19.6788 11.9336C18.8828 13.4318 17.4796 14.976 15.9029 16.3744C14.353 17.749 12.7732 18.8629 11.7722 19.5237L14.4163 23.5297ZM23.9181 14.185C27.1847 8.03149 23.5556 0.820703 17.2822 0.820703V5.6207C19.1289 5.6207 21.6418 8.23592 19.6784 11.9344L23.9181 14.185ZM17.2822 0.820703C13.9876 0.820703 11.9511 2.59181 10.878 4.03971L14.7345 6.89769C15.2014 6.2676 15.9489 5.6207 17.2822 5.6207V0.820703ZM10.8648 4.05772C10.995 3.87865 11.1656 3.73291 11.3629 3.63243L13.5417 7.90943C14.0193 7.66612 14.4326 7.31326 14.7477 6.87969L10.8648 4.05772ZM11.3629 3.63243C11.5601 3.53194 11.7784 3.47956 11.9997 3.47956V8.27956C12.5357 8.27956 13.0641 8.15273 13.5417 7.90943L11.3629 3.63243ZM11.9997 3.47956C12.2211 3.47956 12.4393 3.53194 12.6366 3.63243L10.4578 7.90943C10.9354 8.15273 11.4638 8.27956 11.9997 8.27956V3.47956ZM12.6366 3.63243C12.8338 3.73291 13.0045 3.87865 13.1347 4.05772L9.25182 6.87969C9.56694 7.31327 9.98018 7.66613 10.4578 7.90943L12.6366 3.63243ZM13.1215 4.03971C12.0484 2.59181 10.0119 0.820703 6.71724 0.820703V5.6207C8.05057 5.6207 8.79808 6.2676 9.26504 6.89769L13.1215 4.03971ZM6.71724 0.820703C0.443849 0.820703 -3.18537 8.03168 0.0825992 14.1854L4.32189 11.934C2.35786 8.23572 4.87064 5.6207 6.71724 5.6207V0.820703ZM0.0823696 14.1849C1.26946 16.4214 3.16121 18.413 4.91162 19.9655C6.68904 21.5419 8.46912 22.7944 9.58129 23.5291L12.2272 19.5243C11.2264 18.863 9.64645 17.749 8.09662 16.3744C6.51978 14.9759 5.11703 13.4321 4.32212 11.9345L0.0823696 14.1849Z" fill="#4E4E53" mask="url(#path-1-inside-1_1_15454)"/>
</svg>
