<svg width="20" height="22" viewBox="0 0 20 22" fill="none" xmlns="http://www.w3.org/2000/svg">
<path fill-rule="evenodd" clip-rule="evenodd" d="M14.907 9.615L9.323 15.199C9.13547 15.3865 8.88116 15.4918 8.616 15.4918C8.35084 15.4918 8.09653 15.3865 7.909 15.199L4.493 11.782C4.40016 11.6892 4.32651 11.5789 4.27626 11.4576C4.22601 11.3363 4.20015 11.2063 4.20015 11.075C4.20015 10.9437 4.22601 10.8137 4.27626 10.6924C4.32651 10.5711 4.40016 10.4608 4.493 10.368C4.58584 10.2752 4.69607 10.2015 4.81737 10.1513C4.93868 10.101 5.0687 10.0752 5.2 10.0752C5.3313 10.0752 5.46132 10.101 5.58263 10.1513C5.70393 10.2015 5.81416 10.2752 5.907 10.368L8.616 13.077L13.493 8.201C13.5858 8.10816 13.6961 8.03451 13.8174 7.98426C13.9387 7.93401 14.0687 7.90815 14.2 7.90815C14.3313 7.90815 14.4613 7.93401 14.5826 7.98426C14.7039 8.03451 14.8142 8.10816 14.907 8.201C14.9998 8.29385 15.0735 8.40407 15.1237 8.52537C15.174 8.64668 15.1998 8.7767 15.1998 8.908C15.1998 9.0393 15.174 9.16932 15.1237 9.29063C15.0735 9.41193 14.9998 9.52215 14.907 9.615ZM17.4 2H15.77V1C15.77 0.734783 15.6646 0.48043 15.4771 0.292893C15.2896 0.105357 15.0352 0 14.77 0C14.5048 0 14.2504 0.105357 14.0629 0.292893C13.8754 0.48043 13.77 0.734783 13.77 1V2H5.63V1C5.63 0.734783 5.52464 0.48043 5.33711 0.292893C5.14957 0.105357 4.89522 0 4.63 0C4.36478 0 4.11043 0.105357 3.92289 0.292893C3.73536 0.48043 3.63 0.734783 3.63 1V2H2C1.46957 2 0.960859 2.21071 0.585787 2.58579C0.210714 2.96086 0 3.46957 0 4V19.4C0 19.9304 0.210714 20.4391 0.585787 20.8142C0.960859 21.1893 1.46957 21.4 2 21.4H17.4C17.9304 21.4 18.4391 21.1893 18.8142 20.8142C19.1893 20.4391 19.4 19.9304 19.4 19.4V4C19.4 3.46957 19.1893 2.96086 18.8142 2.58579C18.4391 2.21071 17.9304 2 17.4 2Z" fill="white"/>
</svg>
